<svg width="900" height="400" xmlns="http://www.w3.org/2000/svg">
  <defs>
    <linearGradient id="nightSky" x1="0%" y1="0%" x2="0%" y2="100%">
      <stop offset="0%" style="stop-color:#0a0a1a"/>
      <stop offset="100%" style="stop-color:#1a1a3e"/>
    </linearGradient>
    <linearGradient id="floorGrad" x1="0%" y1="0%" x2="0%" y2="100%">
      <stop offset="0%" style="stop-color:#2a1a0e"/>
      <stop offset="100%" style="stop-color:#1a0e08"/>
    </linearGradient>
    <filter id="blur">
      <feGaussianBlur stdDeviation="3"/>
    </filter>
  </defs>

  <!-- Background night sky -->
  <rect width="900" height="400" fill="url(#nightSky)"/>

  <!-- Stars -->
  <g opacity="0.8">
    <circle cx="50" cy="30" r="1" fill="white"><animate attributeName="opacity" values="1;0.2;1" dur="2s" repeatCount="indefinite"/></circle>
    <circle cx="120" cy="15" r="1.5" fill="white"><animate attributeName="opacity" values="0.2;1;0.2" dur="3s" repeatCount="indefinite"/></circle>
    <circle cx="200" cy="40" r="1" fill="white"><animate attributeName="opacity" values="1;0.3;1" dur="2.5s" repeatCount="indefinite"/></circle>
    <circle cx="320" cy="20" r="1" fill="white"><animate attributeName="opacity" values="0.5;1;0.5" dur="1.8s" repeatCount="indefinite"/></circle>
    <circle cx="450" cy="10" r="1.5" fill="white"><animate attributeName="opacity" values="1;0.2;1" dur="2.2s" repeatCount="indefinite"/></circle>
    <circle cx="600" cy="35" r="1" fill="white"><animate attributeName="opacity" values="0.3;1;0.3" dur="3.2s" repeatCount="indefinite"/></circle>
    <circle cx="720" cy="18" r="1" fill="white"><animate attributeName="opacity" values="1;0.4;1" dur="2.7s" repeatCount="indefinite"/></circle>
    <circle cx="820" cy="28" r="1.5" fill="white"><animate attributeName="opacity" values="0.6;1;0.6" dur="1.9s" repeatCount="indefinite"/></circle>
  </g>

  <!-- Window frame -->
  <rect x="520" y="30" width="300" height="280" rx="4" fill="#1a0e08"/>
  <rect x="530" y="40" width="280" height="260" fill="#0a0a1a" opacity="0.95"/>

  <!-- Rain outside window -->
  <g opacity="0.5">
    <line x1="545" y1="50" x2="540" y2="80" stroke="#88aaff" stroke-width="1"><animate attributeName="y1" values="50;290" dur="0.8s" repeatCount="indefinite"/><animate attributeName="y2" values="80;320" dur="0.8s" repeatCount="indefinite"/></line>
    <line x1="570" y1="70" x2="565" y2="100" stroke="#88aaff" stroke-width="1"><animate attributeName="y1" values="50;290" dur="0.9s" begin="0.2s" repeatCount="indefinite"/><animate attributeName="y2" values="80;320" dur="0.9s" begin="0.2s" repeatCount="indefinite"/></line>
    <line x1="600" y1="55" x2="595" y2="85" stroke="#88aaff" stroke-width="1"><animate attributeName="y1" values="50;290" dur="0.7s" begin="0.1s" repeatCount="indefinite"/><animate attributeName="y2" values="80;320" dur="0.7s" begin="0.1s" repeatCount="indefinite"/></line>
    <line x1="630" y1="65" x2="625" y2="95" stroke="#88aaff" stroke-width="1"><animate attributeName="y1" values="50;290" dur="0.85s" begin="0.3s" repeatCount="indefinite"/><animate attributeName="y2" values="80;320" dur="0.85s" begin="0.3s" repeatCount="indefinite"/></line>
    <line x1="660" y1="48" x2="655" y2="78" stroke="#88aaff" stroke-width="1"><animate attributeName="y1" values="50;290" dur="0.75s" begin="0.15s" repeatCount="indefinite"/><animate attributeName="y2" values="80;320" dur="0.75s" begin="0.15s" repeatCount="indefinite"/></line>
    <line x1="690" y1="60" x2="685" y2="90" stroke="#88aaff" stroke-width="1"><animate attributeName="y1" values="50;290" dur="0.95s" begin="0.4s" repeatCount="indefinite"/><animate attributeName="y2" values="80;320" dur="0.95s" begin="0.4s" repeatCount="indefinite"/></line>
    <line x1="720" y1="52" x2="715" y2="82" stroke="#88aaff" stroke-width="1"><animate attributeName="y1" values="50;290" dur="0.8s" begin="0.25s" repeatCount="indefinite"/><animate attributeName="y2" values="80;320" dur="0.8s" begin="0.25s" repeatCount="indefinite"/></line>
    <line x1="750" y1="68" x2="745" y2="98" stroke="#88aaff" stroke-width="1"><animate attributeName="y1" values="50;290" dur="0.88s" begin="0.35s" repeatCount="indefinite"/><animate attributeName="y2" values="80;320" dur="0.88s" begin="0.35s" repeatCount="indefinite"/></line>
    <line x1="780" y1="56" x2="775" y2="86" stroke="#88aaff" stroke-width="1"><animate attributeName="y1" values="50;290" dur="0.72s" begin="0.1s" repeatCount="indefinite"/><animate attributeName="y2" values="80;320" dur="0.72s" begin="0.1s" repeatCount="indefinite"/></line>
    <line x1="795" y1="70" x2="790" y2="100" stroke="#88aaff" stroke-width="1"><animate attributeName="y1" values="50;290" dur="0.92s" begin="0.45s" repeatCount="indefinite"/><animate attributeName="y2" values="80;320" dur="0.92s" begin="0.45s" repeatCount="indefinite"/></line>
  </g>

  <!-- Window cross frame -->
  <rect x="520" y="170" width="300" height="6" fill="#2a1a0e"/>
  <rect x="668" y="30" width="6" height="280" fill="#2a1a0e"/>

  <!-- Room floor -->
  <rect x="0" y="310" width="900" height="90" fill="url(#floorGrad)"/>

  <!-- Desk -->
  <rect x="50" y="270" width="430" height="18" rx="3" fill="#3d2010"/>
  <rect x="80" y="288" width="15" height="50" fill="#2a1a0e"/>
  <rect x="390" y="288" width="15" height="50" fill="#2a1a0e"/>

  <!-- Laptop -->
  <rect x="170" y="210" width="180" height="115" rx="6" fill="#1a1a2e"/>
  <rect x="175" y="215" width="170" height="100" rx="4" fill="#0d1117"/>
  <rect x="175" y="215" width="170" height="100" rx="4" fill="#58A6FF" opacity="0.12">
    <animate attributeName="opacity" values="0.08;0.2;0.08" dur="3s" repeatCount="indefinite"/>
  </rect>
  <!-- Code lines -->
  <rect x="183" y="225" width="60" height="3" rx="1" fill="#58A6FF" opacity="0.9"/>
  <rect x="183" y="232" width="90" height="3" rx="1" fill="#FF79C6" opacity="0.9"/>
  <rect x="190" y="239" width="70" height="3" rx="1" fill="#50FA7B" opacity="0.9"/>
  <rect x="190" y="246" width="50" height="3" rx="1" fill="#FFB86C" opacity="0.9"/>
  <rect x="183" y="253" width="80" height="3" rx="1" fill="#58A6FF" opacity="0.9"/>
  <rect x="190" y="260" width="65" height="3" rx="1" fill="#FF79C6" opacity="0.9"/>
  <rect x="183" y="267" width="40" height="3" rx="1" fill="#50FA7B" opacity="0.9"/>
  <rect x="225" y="267" width="2" height="8" fill="white">
    <animate attributeName="opacity" values="1;0;1" dur="1s" repeatCount="indefinite"/>
  </rect>
  <!-- Laptop base -->
  <rect x="155" y="325" width="210" height="8" rx="3" fill="#1a1a2e"/>

  <!-- Chair -->
  <rect x="225" y="300" width="65" height="8" rx="4" fill="#c06090"/>
  <rect x="253" y="308" width="10" height="40" fill="#a04070"/>

  <!-- GIRL - Pink Dress, Long Hair -->

  <!-- Long flowing dress (behind body) -->
  <path d="M 238 290 Q 225 320 220 360 L 300 360 Q 295 320 282 290 Z" fill="#ff88bb"/>
  <!-- Dress ruffle bottom -->
  <path d="M 218 345 Q 235 355 260 352 Q 285 355 302 345 Q 290 365 260 368 Q 230 365 218 345 Z" fill="#ff99cc"/>
  <!-- Dress bow/sash -->
  <ellipse cx="260" cy="292" rx="18" ry="5" fill="#ff55aa"/>
  <path d="M 248 290 Q 242 284 248 288" stroke="#ff55aa" stroke-width="3" fill="none"/>
  <path d="M 272 290 Q 278 284 272 288" stroke="#ff55aa" stroke-width="3" fill="none"/>

  <!-- Body/torso (dress top) -->
  <path d="M 238 265 Q 235 285 238 290 L 282 290 Q 285 285 282 265 Z" fill="#ff88bb"/>
  <!-- Dress top sweetheart neckline -->
  <path d="M 242 265 Q 250 260 260 263 Q 270 260 278 265" stroke="#ff55aa" stroke-width="1.5" fill="none"/>

  <!-- Puff sleeves -->
  <ellipse cx="233" cy="268" rx="10" ry="12" fill="#ff99cc"/>
  <ellipse cx="287" cy="268" rx="10" ry="12" fill="#ff99cc"/>

  <!-- Arms -->
  <rect x="224" y="272" width="9" height="20" rx="4" fill="#ffccaa"/>
  <rect x="281" y="272" width="9" height="20" rx="4" fill="#ffccaa"/>

  <!-- Hands -->
  <ellipse cx="228" cy="294" rx="7" ry="5" fill="#ffccaa"/>
  <ellipse cx="285" cy="294" rx="7" ry="5" fill="#ffccaa"/>

  <!-- Neck -->
  <rect x="254" y="250" width="12" height="16" rx="4" fill="#ffccaa"/>

  <!-- Head -->
  <ellipse cx="260" cy="237" rx="27" ry="25" fill="#ffccaa"/>

  <!-- LONG HAIR - flowing beautiful -->
  <!-- Back hair (behind head) -->
  <path d="M 233 225 Q 220 240 218 270 Q 216 300 222 330 Q 228 350 235 360 Q 240 355 238 340 Q 232 310 234 280 Q 236 255 240 237 Z" fill="#1a0a00"/>
  <path d="M 287 225 Q 300 240 302 270 Q 304 300 298 330 Q 292 350 285 360 Q 280 355 282 340 Q 288 310 286 280 Q 284 255 280 237 Z" fill="#1a0a00"/>
  <!-- Top hair -->
  <ellipse cx="260" cy="222" rx="30" ry="18" fill="#1a0a00"/>
  <!-- Hair highlight -->
  <ellipse cx="250" cy="216" rx="12" ry="5" fill="#4a2000" opacity="0.6"/>
  <!-- Side swept bangs -->
  <path d="M 233 218 Q 240 212 252 215 Q 248 225 238 228 Z" fill="#1a0a00"/>
  <path d="M 233 218 Q 228 222 230 232 Q 234 228 238 228 Z" fill="#1a0a00"/>

  <!-- Face features -->
  <!-- Eyes - big pretty anime eyes -->
  <ellipse cx="250" cy="236" rx="6" ry="7" fill="white"/>
  <ellipse cx="270" cy="236" rx="6" ry="7" fill="white"/>
  <ellipse cx="250" cy="237" rx="4.5" ry="5.5" fill="#6633aa"/>
  <ellipse cx="270" cy="237" rx="4.5" ry="5.5" fill="#6633aa"/>
  <ellipse cx="250" cy="237" rx="3" ry="4" fill="#220066"/>
  <ellipse cx="270" cy="237" rx="3" ry="4" fill="#220066"/>
  <!-- Eye shine -->
  <circle cx="252" cy="234" r="1.5" fill="white"/>
  <circle cx="272" cy="234" r="1.5" fill="white"/>
  <circle cx="248" cy="239" r="0.8" fill="white"/>
  <circle cx="268" cy="239" r="0.8" fill="white"/>
  <!-- Eyelashes -->
  <path d="M 244 230 Q 246 228 248 229" stroke="#1a0a00" stroke-width="1" fill="none"/>
  <path d="M 252 229 Q 255 227 257 229" stroke="#1a0a00" stroke-width="1" fill="none"/>
  <path d="M 264 230 Q 266 228 268 229" stroke="#1a0a00" stroke-width="1" fill="none"/>
  <path d="M 272 229 Q 275 227 277 229" stroke="#1a0a00" stroke-width="1" fill="none"/>

  <!-- Blush -->
  <ellipse cx="242" cy="244" rx="7" ry="3.5" fill="#ffaaaa" opacity="0.65"/>
  <ellipse cx="278" cy="244" rx="7" ry="3.5" fill="#ffaaaa" opacity="0.65"/>

  <!-- Nose -->
  <path d="M 258 247 Q 260 250 262 247" stroke="#cc8888" stroke-width="1.2" fill="none"/>

  <!-- Smile -->
  <path d="M 253 253 Q 260 260 267 253" stroke="#cc6688" stroke-width="1.8" fill="none" stroke-linecap="round"/>

  <!-- Hair accessories - pink bow on top -->
  <path d="M 268 213 Q 275 207 280 213 Q 275 219 268 213 Z" fill="#ff55aa"/>
  <path d="M 268 213 Q 261 207 256 213 Q 261 219 268 213 Z" fill="#ff55aa"/>
  <circle cx="268" cy="213" r="3" fill="#ff88cc"/>

  <!-- Small star sparkles around girl -->
  <text x="295" y="225" font-size="10" fill="#ffdd88" opacity="0.9">✦</text>
  <text x="220" y="230" font-size="8" fill="#ffaacc" opacity="0.8">✦</text>
  <text x="305" y="250" font-size="7" fill="#aaddff" opacity="0.7">✦</text>

  <!-- Coffee cup -->
  <rect x="110" y="298" width="26" height="23" rx="4" fill="#5c3a00"/>
  <rect x="112" y="300" width="22" height="19" rx="3" fill="#3d2010"/>
  <path d="M 118 296 Q 120 290 118 284" stroke="#cccccc" stroke-width="1.5" fill="none" opacity="0.6">
    <animate attributeName="opacity" values="0.6;0;0.6" dur="2s" repeatCount="indefinite"/>
  </path>
  <path d="M 125 295 Q 127 288 125 282" stroke="#cccccc" stroke-width="1.5" fill="none" opacity="0.4">
    <animate attributeName="opacity" values="0.4;0.8;0.4" dur="2.5s" repeatCount="indefinite"/>
  </path>

  <!-- Lamp -->
  <rect x="400" y="188" width="8" height="92" fill="#4a3010"/>
  <polygon points="380,188 428,188 415,153 393,153" fill="#cc9933"/>
  <ellipse cx="404" cy="198" rx="80" ry="60" fill="#ffdd88" opacity="0.12" filter="url(#blur)">
    <animate attributeName="opacity" values="0.1;0.18;0.1" dur="4s" repeatCount="indefinite"/>
  </ellipse>

  <!-- Bookshelf -->
  <rect x="30" y="130" width="120" height="130" rx="3" fill="#3d2010"/>
  <rect x="35" y="135" width="110" height="20" rx="2" fill="#2a1408"/>
  <rect x="35" y="160" width="110" height="20" rx="2" fill="#2a1408"/>
  <rect x="35" y="185" width="110" height="20" rx="2" fill="#2a1408"/>
  <rect x="38" y="137" width="12" height="18" fill="#cc4444"/>
  <rect x="51" y="137" width="10" height="18" fill="#4488cc"/>
  <rect x="62" y="137" width="14" height="18" fill="#44cc88"/>
  <rect x="77" y="137" width="11" height="18" fill="#cc8844"/>
  <rect x="89" y="137" width="13" height="18" fill="#8844cc"/>
  <rect x="38" y="162" width="15" height="18" fill="#cccc44"/>
  <rect x="54" y="162" width="10" height="18" fill="#cc4488"/>
  <rect x="65" y="162" width="12" height="18" fill="#44cccc"/>

  <!-- Plant -->
  <rect x="460" y="280" width="18" height="28" rx="3" fill="#6b3e26"/>
  <ellipse cx="469" cy="268" rx="15" ry="18" fill="#2d7a3a"/>
  <ellipse cx="458" cy="272" rx="10" ry="12" fill="#3a9a4a"/>
  <ellipse cx="480" cy="272" rx="10" ry="12" fill="#3a9a4a"/>

  <!-- Pop-up name badge -->
  <g>
    <rect x="30" y="25" width="450" height="85" rx="15" fill="#1a1a3e" opacity="0" stroke="#ff88bb" stroke-width="2">
      <animate attributeName="opacity" values="0;0;0.95;0.95;0.95;0" dur="6s" repeatCount="indefinite"/>
    </rect>
    <text x="255" y="58" font-family="Georgia, serif" font-size="15" fill="#ff88bb" text-anchor="middle" font-weight="bold">
      <animate attributeName="opacity" values="0;0;1;1;1;0" dur="6s" repeatCount="indefinite"/>
      Hey, this is
    </text>
    <text x="255" y="90" font-family="Georgia, serif" font-size="24" fill="#ffffff" text-anchor="middle" font-weight="bold">
      <animate attributeName="opacity" values="0;0;1;1;1;0" dur="6s" repeatCount="indefinite"/>
      Marzana Tabassum 🌸
    </text>
  </g>

</svg>
